<?xml version="1.0" encoding="UTF-8"?>
<svg xmlns="http://www.w3.org/2000/svg" xmlns:xlink="http://www.w3.org/1999/xlink" width="100px" height="80px" viewBox="0 0 100 80" version="1.1">
<g id="surface1">
<path style=" stroke:none;fill-rule:nonzero;fill:rgb(0%,0%,0%);fill-opacity:1;" d="M 28.1875 31.71875 C 28.078125 35.257812 29.84375 36.828125 29.890625 37.820312 C 29.847656 38.234375 29.609375 38.597656 29.25 38.800781 L 27.25 40.203125 C 26.988281 40.382812 26.683594 40.488281 26.367188 40.5 C 26.300781 40.5 25.089844 40.789062 23.167969 36.5 C 20.792969 39.464844 17.183594 41.164062 13.386719 41.101562 C 10.84375 41.242188 3.949219 39.65625 4.304688 32.320312 C 4.054688 26.335938 9.625 22.621094 15.386719 22.9375 C 16.496094 22.9375 18.761719 22.992188 22.726562 23.914062 L 22.726562 21.476562 C 23.148438 17.339844 20.429688 14.132812 15.726562 14.613281 C 15.351562 14.617188 12.695312 14.535156 8.5625 16.195312 C 7.414062 16.722656 7.265625 16.632812 6.882812 16.632812 C 5.726562 16.632812 6.203125 13.277344 6.425781 12.851562 C 7.238281 11.851562 12.027344 9.984375 16.726562 10.011719 C 19.871094 9.734375 22.996094 10.703125 25.429688 12.710938 C 27.429688 14.949219 28.425781 17.902344 28.191406 20.894531 Z M 14.6875 36.78125 C 19.753906 36.707031 21.898438 33.660156 22.386719 32.019531 C 22.773438 30.449219 22.707031 29.457031 22.707031 27.738281 C 21.195312 27.375 19.023438 26.980469 16.527344 26.976562 C 14.160156 26.800781 9.835938 27.859375 10.003906 32.019531 C 9.8125 34.640625 11.742188 36.925781 14.6875 36.78125 Z M 41.390625 40.382812 C 40.164062 40.496094 39.59375 39.625 39.410156 38.761719 L 31.628906 13.035156 C 31.476562 12.601562 31.378906 12.152344 31.328125 11.695312 C 31.269531 11.300781 31.539062 10.933594 31.933594 10.875 C 31.96875 10.867188 31.601562 10.875 35.410156 10.875 C 36.78125 10.738281 37.226562 11.816406 37.371094 12.496094 L 42.953125 34.5 L 48.132812 12.496094 C 48.214844 11.992188 48.59375 10.765625 50.132812 10.894531 L 52.8125 10.894531 C 53.152344 10.867188 54.550781 10.816406 54.796875 12.515625 L 60.015625 34.800781 L 65.777344 12.515625 C 65.851562 12.175781 66.203125 10.738281 67.757812 10.894531 L 70.839844 10.894531 C 70.972656 10.875 71.800781 10.769531 71.660156 12.234375 C 71.59375 12.523438 72.195312 10.570312 63.417969 38.78125 C 63.238281 39.644531 62.664062 40.515625 61.4375 40.402344 L 58.515625 40.402344 C 56.808594 40.582031 56.5625 38.894531 56.535156 38.722656 L 51.355469 17.296875 L 46.234375 38.703125 C 46.207031 38.871094 45.960938 40.5625 44.25 40.382812 Z M 84.125 41.261719 C 83.203125 41.265625 78.824219 41.214844 75.160156 39.34375 C 74.414062 39.027344 73.933594 38.292969 73.941406 37.480469 L 73.941406 35.800781 C 73.941406 34.480469 74.910156 34.722656 75.320312 34.882812 C 76.890625 35.515625 77.894531 35.996094 79.820312 36.382812 C 85.546875 37.558594 88.066406 36.023438 88.683594 35.679688 C 90.738281 34.460938 90.902344 31.667969 89.503906 30.21875 C 87.867188 28.847656 87.085938 28.796875 81.203125 26.9375 C 80.476562 26.738281 74.375 24.8125 74.359375 18.757812 C 74.265625 14.34375 78.273438 9.980469 85.222656 10.015625 C 87.203125 10.015625 92.476562 10.660156 93.90625 12.457031 C 94.117188 12.78125 94.222656 13.167969 94.207031 13.554688 L 94.207031 15.136719 C 94.207031 15.828125 93.953125 16.175781 93.445312 16.175781 C 92.242188 16.042969 90.101562 14.429688 85.765625 14.496094 C 84.6875 14.441406 79.53125 14.640625 79.761719 18.398438 C 79.695312 21.359375 83.921875 22.472656 84.402344 22.601562 C 90.101562 24.3125 92.003906 24.597656 94.265625 27.222656 C 96.945312 30.699219 95.5 34.769531 94.945312 35.882812 C 91.964844 41.742188 84.253906 41.265625 84.125 41.261719 Z M 90.40625 57.648438 C 79.460938 65.726562 63.578125 70.03125 50.015625 70.03125 C 31.714844 70.148438 14.03125 63.421875 0.441406 51.164062 C -0.578125 50.246094 0.320312 48.984375 1.5625 49.6875 C 16.636719 58.308594 33.707031 62.839844 51.074219 62.828125 C 64.046875 62.761719 76.875 60.128906 88.824219 55.085938 C 90.664062 54.304688 92.226562 56.304688 90.40625 57.648438 Z M 94.964844 52.445312 C 93.566406 50.644531 85.703125 51.605469 82.183594 52.023438 C 81.121094 52.144531 80.941406 51.226562 81.902344 50.546875 C 88.164062 46.144531 98.445312 47.40625 99.628906 48.882812 C 100.808594 50.363281 99.308594 60.667969 93.445312 65.589844 C 92.546875 66.351562 91.6875 65.949219 92.085938 64.949219 C 93.40625 61.628906 96.367188 54.246094 94.964844 52.445312 Z M 94.964844 52.445312 "/>
</g>
</svg>
