<?xml version="1.0" encoding="UTF-8"?>
<svg xmlns="http://www.w3.org/2000/svg" xmlns:xlink="http://www.w3.org/1999/xlink" width="60px" height="60px" viewBox="0 0 60 60" version="1.1">
<g id="surface1">
<path style=" stroke:none;fill-rule:nonzero;fill:rgb(0%,0%,0%);fill-opacity:1;" d="M 20.660156 22.421875 C 17.457031 28 14.761719 32.5625 14.652344 32.5625 C 14.546875 32.5625 12.089844 28.425781 9.179688 23.355469 L 3.871094 14.144531 L 3.390625 15.105469 C 2.375 17.082031 1.28125 20.125 0.746094 22.5 C 0.0273438 25.648438 -0.0273438 31.949219 0.613281 34.882812 C 1.519531 38.914062 3.28125 43 5.445312 46.039062 L 6.566406 47.640625 L 14.972656 47.722656 L 23.355469 47.777344 L 32.695312 31.574219 C 37.847656 22.6875 42.4375 14.679688 42.917969 13.824219 L 43.800781 12.277344 L 26.476562 12.277344 Z M 20.660156 22.421875 "/>
<path style=" stroke:none;fill-rule:nonzero;fill:rgb(0%,0%,0%);fill-opacity:1;" d="M 54.796875 16.574219 C 54.074219 17.800781 52.660156 20.285156 51.621094 22.074219 L 49.777344 25.328125 L 46.359375 25.410156 L 42.917969 25.488281 L 39.074219 32.160156 L 35.230469 38.835938 L 38.539062 38.96875 L 41.851562 39.101562 L 39.367188 43.371094 L 36.886719 47.640625 L 45.078125 47.722656 L 53.246094 47.800781 L 53.914062 47 C 54.929688 45.800781 56.71875 42.703125 57.652344 40.542969 C 60.71875 33.308594 60.71875 24.636719 57.652344 17.269531 C 56.289062 13.960938 56.316406 13.984375 54.796875 16.574219 Z M 54.796875 16.574219 "/>
</g>
</svg>
