<svg id="sygnet-mono--on-white" xmlns="http://www.w3.org/2000/svg" viewBox="0 0 42 36.4"><title>sygnet__mono-on-white</title><path d="M14.63,4a2.09,2.09,0,0,0-1.77-1H2.1A2.1,2.1,0,0,0,0,5.1,2.12,2.12,0,0,0,.32,6.22l20.3,32.2a2.11,2.11,0,0,0,3.56,0l5.38-8.53a2.15,2.15,0,0,0,.32-1.12,2.12,2.12,0,0,0-.32-1.12Z" transform="translate(0 -3)"/><path d="M32.74,19.19a2.11,2.11,0,0,0,3.56,0l1.85-2.93,3.53-5.6A2.12,2.12,0,0,0,42,9.54a2.15,2.15,0,0,0-.32-1.12L38.88,4A2.11,2.11,0,0,0,37.1,3H26.34a2.1,2.1,0,0,0-2.1,2.1,2,2,0,0,0,.33,1.12Z" transform="translate(0 -3)"/></svg>