<?xml version="1.0" encoding="UTF-8"?>
<svg xmlns="http://www.w3.org/2000/svg" xmlns:xlink="http://www.w3.org/1999/xlink" width="64px" height="64px" viewBox="0 0 64 64" version="1.1">
<g id="surface1">
<path style=" stroke:none;fill-rule:nonzero;fill:rgb(91.764706%,26.27451%,20.784314%);fill-opacity:1;" d="M 40.726562 20.488281 L 42.777344 20.523438 L 48.347656 14.953125 L 48.617188 12.59375 C 44.199219 8.65625 38.367188 6.261719 31.992188 6.261719 C 20.453125 6.261719 10.714844 14.113281 7.828125 24.746094 C 8.4375 24.324219 9.738281 24.640625 9.738281 24.640625 L 20.867188 22.8125 C 20.867188 22.8125 21.441406 21.863281 21.730469 21.910156 C 24.363281 19.019531 28.089844 17.375 32 17.375 C 35.300781 17.382812 38.339844 18.546875 40.726562 20.476562 Z M 40.726562 20.488281 "/>
<path style=" stroke:none;fill-rule:nonzero;fill:rgb(25.882353%,52.156863%,95.686275%);fill-opacity:1;" d="M 56.171875 24.769531 C 54.878906 20 52.210938 15.789062 48.613281 12.59375 L 40.726562 20.480469 C 43.886719 23.03125 45.914062 26.933594 45.914062 31.300781 L 45.914062 32.691406 C 49.753906 32.691406 52.867188 35.816406 52.867188 39.644531 C 52.867188 43.484375 49.746094 46.601562 45.914062 46.601562 L 32.007812 46.601562 L 30.613281 48 L 30.613281 56.347656 L 32.007812 57.730469 L 45.914062 57.730469 C 55.898438 57.71875 63.984375 49.628906 64 39.648438 C 63.992188 33.492188 60.898438 28.046875 56.171875 24.769531 Z M 56.171875 24.769531 "/>
<path style=" stroke:none;fill-rule:nonzero;fill:rgb(20.392157%,65.882353%,32.54902%);fill-opacity:1;" d="M 18.085938 57.738281 L 31.984375 57.738281 L 31.984375 46.601562 L 18.085938 46.601562 C 17.097656 46.601562 16.121094 46.386719 15.222656 45.976562 L 13.214844 46.59375 L 7.644531 52.164062 L 7.15625 54.042969 C 10.296875 56.4375 14.136719 57.734375 18.085938 57.730469 Z M 18.085938 57.738281 "/>
<path style=" stroke:none;fill-rule:nonzero;fill:rgb(98.431373%,73.72549%,1.960784%);fill-opacity:1;" d="M 18.085938 21.570312 C 8.101562 21.582031 0.015625 29.671875 0 39.652344 C 0 45.527344 2.8125 50.75 7.164062 54.058594 L 15.230469 45.992188 C 12.738281 44.867188 11.132812 42.390625 11.132812 39.652344 C 11.132812 35.816406 14.253906 32.699219 18.085938 32.699219 C 20.90625 32.699219 23.328125 34.398438 24.425781 36.800781 L 32.488281 28.734375 C 29.183594 24.382812 23.960938 21.570312 18.085938 21.570312 Z M 18.085938 21.570312 "/>
</g>
</svg>
