<?xml version="1.0" standalone="no"?>
<!DOCTYPE svg PUBLIC "-//W3C//DTD SVG 20010904//EN"
 "http://www.w3.org/TR/2001/REC-SVG-20010904/DTD/svg10.dtd">
<svg version="1.0" xmlns="http://www.w3.org/2000/svg"
 width="225.000000pt" height="225.000000pt" viewBox="0 0 225.000000 225.000000"
 preserveAspectRatio="xMidYMid meet">

<g transform="translate(0.000000,225.000000) scale(0.100000,-0.100000)"
fill="#000000" stroke="none">
<path d="M1385 2083 c-57 -14 -100 -96 -75 -144 44 -84 467 -742 483 -751 28
-14 82 -14 110 1 13 7 91 120 182 264 129 204 160 258 159 287 0 27 -20 67
-85 169 -47 74 -98 144 -113 155 -26 20 -41 21 -334 23 -169 0 -316 -1 -327
-4z"/>
<path d="M319 1621 c-23 -23 -29 -38 -29 -71 0 -43 64 -148 722 -1188 110
-174 137 -202 190 -202 52 0 82 35 229 271 176 281 172 274 166 309 -7 33
-531 868 -561 892 -19 16 -53 18 -354 18 l-334 0 -29 -29z"/>
</g>
</svg>
