<?xml version="1.0" encoding="utf-8"?>
<!-- Generator: Adobe Illustrator 25.0.1, SVG Export Plug-In . SVG Version: 6.00 Build 0)  -->
<svg version="1.1" id="Layer_1" xmlns="http://www.w3.org/2000/svg" xmlns:xlink="http://www.w3.org/1999/xlink" x="0px" y="0px"
	 viewBox="0 0 57 37.2" style="enable-background:new 0 0 57 37.2;" xml:space="preserve">
<style type="text/css">
	.st0{fill:none;stroke:#FCD601;stroke-width:3;stroke-linejoin:round;}
	.st1{fill:none;stroke:#4B1E57;stroke-width:3;stroke-linejoin:round;}
	.st2{fill:none;stroke:#714780;stroke-width:3;stroke-linejoin:round;}
	.st3{fill:none;stroke:#EE5586;stroke-width:3;stroke-linejoin:round;}
</style>
<g id="a">
</g>
<polygon class="st0" points="1.5,18.6 11.4,35.7 21.3,18.6 11.4,1.5 1.5,18.6 "/>
<polygon class="st1" points="35.7,27.2 30.8,18.6 17.1,18.6 22,27.2 35.7,27.2 "/>
<polygon class="st1" points="45.6,18.6 35.7,1.5 22,1.5 31.9,18.6 45.6,18.6 "/>
<polygon class="st2" points="25.9,18.6 35.7,35.7 22,35.7 12.1,18.6 25.9,18.6 "/>
<polygon class="st3" points="35.7,10.1 40.7,18.6 27,18.6 22,10.1 35.7,10.1 "/>
<polygon class="st1" points="35.7,18.6 45.6,1.5 55.5,18.6 45.6,35.7 35.7,18.6 "/>
</svg>
